<?xml version="1.0" encoding="utf-8"?>
<!-- Generator: Adobe Illustrator 27.5.0, SVG Export Plug-In . SVG Version: 6.00 Build 0)  -->
<svg version="1.1" xmlns="http://www.w3.org/2000/svg" xmlns:xlink="http://www.w3.org/1999/xlink" x="0px" y="0px"
	 viewBox="0 0 500 500" style="enable-background:new 0 0 500 500;" xml:space="preserve">
<g id="BACKGROUND">
	<rect style="fill:#FEF8F8;" width="500" height="500"/>
</g>
<g id="OBJECTS">
	<g>
		<path style="opacity:0.74;fill:#F0EDEC;" d="M123.818,376.699h249.928c6.066-6.401,11.535-13.122,16.205-19.885
			c13.955-20.211,34.506-67.386-3.676-75.262c-12.762-2.632-30.646,7.652-36.262-9.404c-3.304-10.034,0.079-22.177,1.944-32.089
			c1.184-6.296,5.169-17.511,0.939-23.356c-8.15-11.26-33.268,4.868-44.461,4.014c-9.771-0.746-16.345-7.761-20.629-16.005
			c-7.525-14.48-9.198-31.948-15.393-47.068c-3.935-9.604-7.242-21.51-18.578-16.596c-26.046,11.291-31.702,40.291-45.039,61.842
			c-6.185,9.994-15.522,8.243-24.314,2.565c-9.591-6.195-17.027-10.369-26.393,0.371c-15.061,17.271-12.992,46.582-11.482,67.463
			c0.929,12.84,3.67,23.122-11.59,17.06c-10.651-4.231-36.368-20.78-46.245-9.645c-6.311,7.115-2.63,22.799-0.97,30.741
			C92.548,334.174,107.609,357.975,123.818,376.699z"/>
		<g>
			<path style="fill:#FFD1D7;" d="M83.694,359.97c-5.254,5.418-8.829,12.448-9.35,19.499c-1.947,26.346,27.134,40.355,47.61,48.5
				c41.194,16.385,85.042,25.582,129.322,27.453c36.554,1.545,74.515-0.227,107.783-17.007c12.68-6.396,24.308-15.223,33.203-26.35
				c8.708-10.892,18.996-26.971,16.522-41.531c-2.99-17.598-28.774-24.348-42.729-21.988c-12.644,2.138-24.323,8.304-36.556,11.9
				c-10.747,3.159-17.582,7.716-28.623,7.912c-24.353,0.432-48.238-0.383-72.619-1.028c-33.902-0.896-69.242-6.262-102.435-13.065
				c-6.555-1.343-12.987-3.908-19.73-4.187C97.805,349.736,89.666,353.812,83.694,359.97z"/>
			<path style="opacity:0.48;fill:#FB9FAB;" d="M329.499,360.445c-10.747,3.159-17.582,7.716-28.623,7.912
				c-24.353,0.431-48.238-0.383-72.619-1.028c-29.791-0.787-60.691-5.028-90.271-10.66c-2.226,0.602-4.3,1.429-6.336,2.556
				c-11.537,6.386-18.74,19.921-17.608,33.002c0.556,6.43,3.63,12.699,8.624,17.267c5.636,5.156,12.88,8.534,20.095,10.832
				c16.567,5.275,34.29,5.731,51.515,6.494c8.314,0.368,16.647,0.712,24.919,1.678c3.929,0.459,7.937,0.903,11.698,2.186
				c3.465,1.182,6.72,2.899,9.68,5.049c5.674,4.122,9.842,10.922,16.098,14.085c1.672,0.845,3.488,1.37,5.318,1.771
				c8.201,1.793,16.596,1.576,24.088-2.581c7.176-3.982,4.761-9.36,5.574-16.201c0.455-3.825,1.732-7.565,4.386-10.439
				c2.396-2.594,5.757-4.04,9.129-4.868c3.551-0.872,7.209-1.202,10.795-1.892c4.299-0.827,9.345-1.617,13.039-4.079
				c9.529-6.353,2.249-20.498,7.106-28.964c1.91-3.329,4.97-5.881,7.532-8.68c3.236-3.536,6.217-7.293,8.885-11.276
				c2.682-4.004,5.055-8.217,7.018-12.608C349.334,352.756,339.605,357.475,329.499,360.445z"/>
			<g>
				<path style="fill:#44233E;" d="M284.309,235.365l-14.204-33.972l-20.191-9.242l-20.191,9.242l-13.082,35.665
					c12.536,9.172,24.239,7.172,33.272,6.533C258.948,244.229,271.773,244.537,284.309,235.365z"/>
				<path style="fill:#FEF8F8;" d="M256.495,390.632c0,0-24.391,5.22-8.341,21.561c6.278,6.392,15.876,10.66,14.541,22.093
					c-1.075,9.201,11.917,15.957,14.772,2.296c2.855-13.66-9.618-25.186-5.63-32.41C274.847,398.72,270.329,386.016,256.495,390.632
					z"/>
				<g>
					<path style="fill:#F27187;" d="M331.904,321.812l-18.413-51.524c0,0-16.99-15.807-53.442-18.122
						c0.019,0.307,0.036,0.614,0.036,0.927c0,6.425-4.038,11.634-9.02,11.634c-4.982,0-9.02-5.209-9.02-11.634
						c0-0.313,0.017-0.62,0.036-0.927c-36.686,4.825-48.326,13.858-48.326,13.858l-23.529,55.788l-3.144,26.62l84.262,18.358
						l83.704-18.358L331.904,321.812z"/>
					<path style="fill:#F27187;" d="M259.021,258.573c1.254-2.152,2.632-4.223,4.162-6.168c-1.029-0.09-2.072-0.171-3.134-0.238
						c0.019,0.307,0.036,0.614,0.036,0.927C260.085,255.075,259.699,256.94,259.021,258.573z"/>
					<path style="opacity:0.17;fill:#F27187;" d="M331.904,321.812l-18.413-51.525c0,0-14.119-13.125-44.214-17.204
						c-6.489,6.908-10.324,16.351-13.114,25.209c-1.692,5.37-3.054,10.835-4.344,16.313c-1.543,6.552-3.074,13.142-4.108,19.796
						c-0.582,3.744-0.69,7.502-0.908,11.277c-0.2,3.461-0.779,6.871-2.635,9.863c-2.951,4.757-7.795,7.609-12.894,9.581
						c-4.969,1.922-10.221,2.888-15.26,4.582c-5.279,1.775-10.475,3.877-15.656,5.977l50.986,11.109l83.704-18.358L331.904,321.812z
						"/>
					<path style="fill:#FACCCE;" d="M251.065,264.727c4.982,0,9.02-5.209,9.02-11.634c0-0.313-0.017-0.62-0.036-0.927
						c-2.878-0.183-5.862-0.292-8.984-0.292c-3.122,0-6.106,0.109-8.984,0.292c-0.019,0.307-0.036,0.614-0.036,0.927
						C242.045,259.518,246.083,264.727,251.065,264.727z"/>
				</g>
				<g>
					<path style="fill:#FACCCE;" d="M251.065,264.727c4.982,0,9.02-5.209,9.02-11.634c0-0.313-0.017-0.62-0.036-0.927
						c-2.878-0.183-5.862-0.292-8.984-0.292c-3.122,0-6.106,0.109-8.984,0.292c-0.019,0.307-0.036,0.614-0.036,0.927
						C242.045,259.518,246.083,264.727,251.065,264.727z"/>
				</g>
				<g>
					<path style="fill:#D75F75;" d="M315.863,340.63c-19.34,7.896-25.054,11.435-25.054,11.435c0.684,0.264,1.322,0.579,1.938,0.917
						h51.751c0.452-2.353,0.633-4.92,0.497-7.73c-1.399-28.833-11.78-68.034-47.003-84.373c-4.816-2.234-10.585,0.026-12.404,5.014
						c-1.154,3.164-1.601,7.706-0.324,14.209C289.052,299.403,315.863,340.63,315.863,340.63z"/>
				</g>
				<path style="fill:#FACCCE;" d="M258.333,255.97c-1.702-7.905-3.326-15.676-4.416-23.512h-7.409
					c-0.263,2.796-0.9,6.093-1.243,8.886c-0.605,4.917-1.503,9.795-2.647,14.626H258.333z"/>
				<path style="fill:#FB9FAB;" d="M256.481,247.095c-0.985-4.885-1.884-9.749-2.564-14.636h-7.409
					c-0.263,2.796-0.9,6.093-1.243,8.886c-0.358,2.913-0.831,5.811-1.385,8.695C247.856,248.543,252.102,247.637,256.481,247.095z"
					/>
				<path style="fill:#AA3F61;" d="M280.778,358.69c0,0-159.455-17.487-159.455,26.659c0,44.146,135.851,40.158,135.851,40.158
					l9.189-37.05c0,0-51.873-14.837-81.645-18.186c0,0,28.798,9.466,83.232,18.312c3.451,0.561,6.497-2.505,7.066-5.955
					L280.778,358.69z"/>
				<path style="opacity:0.22;fill:#AA3F61;" d="M245.117,356.05c-0.014,0.206-0.034,0.411-0.046,0.617
					c-0.248,4.035-0.225,8.064,0.166,12.089c0.365,3.763,0.886,7.507,1.454,11.245c0.527,0.88,1.099,1.738,1.699,2.579
					c1.132,0.421,2.23,0.945,3.266,1.48c1.926,0.996,3.765,2.162,5.738,3.065c2.683,1.228,5.512,2.116,8.327,2.983
					c0.072,0.022,0.144,0.044,0.216,0.066l0.425-1.715c0,0-0.408-0.116-1.157-0.327c0.914,0.151,1.816,0.303,2.745,0.453
					c3.451,0.561,6.497-2.505,7.066-5.955l5.762-23.939C280.778,358.69,265.841,357.055,245.117,356.05z"/>
				<path style="opacity:0.22;fill:#AA3F61;" d="M229.13,382.479c-3.646-0.59-7.679-0.985-10.827-3.103
					c-1.682-1.132-2.902-2.575-3.759-4.409c-0.811-1.734-1.357-3.637-2.528-5.181c-1.218-1.605-2.865-2.835-4.353-4.171
					c-1.398-1.256-3.072-2.756-3.585-4.634c-0.42-1.537-0.256-3.044-0.895-4.555c-0.144-0.34-0.295-0.671-0.447-0.998
					c-21.25,0.531-42.659,2.589-58.185,7.678c2.091,4.005,4.353,7.97,7.447,11.257c1.818,1.932,3.946,3.669,6.435,4.653
					c3.101,1.226,6.48,1.402,9.775,1.393c5.883-0.015,12.354-0.956,18.017,1.094c4.836,1.75,8.028,5.563,11.472,9.168
					c1.59,1.664,3.266,3.262,5.315,4.351c2.038,1.083,4.347,1.336,6.62,1.181c5.105-0.347,10.009-2.791,14.465-5.127
					c4.142-2.172,8.174-4.568,12.332-6.706C234.039,383.582,231.624,382.883,229.13,382.479z"/>
				<path style="fill:#FEF8F8;" d="M272.512,391.953c0,0,1.626-24.75,20.014-11.31c7.193,5.257,12.774,14.087,23.831,11.128
					c8.899-2.382,17.415,9.43,4.385,14.204c-13.03,4.775-26.166-5.839-32.699-0.876C283.111,408.846,269.96,406.229,272.512,391.953
					z"/>
				<path style="fill:#AA3F61;" d="M250.363,326.918c0-9.339,3.754-75.043,33.019-75.043c36.771,0,31.383,136.215,31.383,136.215
					l-59.297,0.137C255.468,388.227,250.363,351.931,250.363,326.918z"/>
				<path style="opacity:0.22;fill:#AA3F61;" d="M266.737,384.35c0.873-0.253,1.859,0.017,2.496,0.66
					c0.546,0.551,1.26,1.5,1.935,1.714c0.608,0.193,1.36-0.221,2.043-0.548c2.197-1.051,4.46-1.788,6.806-2.441
					c4.689-1.306,9.514-1.894,14.255-2.966c4.988-1.129,9.922-2.482,14.837-3.89c1.973-0.565,3.943-1.14,5.914-1.712
					c0.043-5.593,0.022-12.681-0.176-20.624c-7.199,3.502-14.898,6.124-22.377,8.653c-12.935,4.374-26.233,8.367-38.312,14.794
					c0.557,4.633,1.009,8.028,1.205,9.47C259.248,386.88,262.978,385.438,266.737,384.35z"/>
				<path style="fill:#913455;" d="M262.215,389.495c0,0-80.615-11.186-74.73-21.589
					C189.286,364.721,262.215,389.495,262.215,389.495z"/>
				<path style="fill:#913455;" d="M260.085,381.135c0,0-0.23-82.211,6.552-80.496C273.418,302.355,260.085,381.135,260.085,381.135
					z"/>
				<path style="fill:#44233E;" d="M267.67,350.222c0,0-2.324,24.978,4.777,33.385l7.614-15.984L267.67,350.222z"/>
				<path style="fill:#FACCCE;" d="M269.789,355.081c0,0-8.853,1.561-13.232-2.091c-4.368-3.642-4.432-4.927-6.04-3.211
					c-2.215,2.364,3.136,8.278,6.745,9.78c3.609,1.502-9.376,1.126-9.578,3.134c-0.288,2.857,1.262,2.51,1.262,3.686
					c0,1.429-1.55,0.878-1.275,3.577c0.202,1.99,2.259,1.708,2.424,3.14c0.155,1.342-1.907,1.682-1.74,3.19
					c0.167,1.508,1.75,1.533,1.851,2.428c0.056,0.5-1.841,1.405-1.259,3.751c0.581,2.346,4.63,2.379,8.317,1.717
					c3.686-0.662,22.454-8.035,22.454-8.035l-3.016-14.579L269.789,355.081z"/>
				<path style="fill:#44233E;" d="M192.13,379.115c0,0,16.678-14.414,14.471-26.056l-15.872,5.699L192.13,379.115z"/>
				<path style="fill:#D75F75;" d="M347.944,344.435c-0.71-20.934-11.396-59.534-35.796-75.262l7.804,70.029
					c-20.738,3.246-52.618,11.02-52.618,11.02c5.429,12.596,6.146,34.115,4.777,33.385
					C289.379,378.429,348.831,370.588,347.944,344.435z"/>
				<path style="fill:#FACCCE;" d="M189.868,351.439c0,0,17.051,5.693,21.956,13.791c4.175,6.891,11.095,23.17,9.161,24.462
					c-3.296,2.202-10.814-15.511-10.814-15.511s7.167,15.709,4.837,16.973c-3.381,1.833-9.42-12.985-9.42-12.985
					s5.896,13.229,2.899,14.591c-2.812,1.278-7.589-12.087-7.589-12.087s4.068,11.818,1.764,11.795
					c-1.228-0.012-2.192-0.347-3.856-4.567c-1.913-4.853-5.175-9.055-9.377-12.145l-10.902-8.016L189.868,351.439z"/>
				<g>
					<path style="fill:#D75F75;" d="M208.906,265.03c-2.157-4.851-6.833-3.69-11.485-1.131
						c-34.018,18.718-52.908,56.206-52.325,85.068c0.611,30.249,29.226,25.544,47.034,30.149c0,0-0.435-19.104,14.471-26.056
						c0,0-2.932-4.841-22.768-11.391c0,0,23.918-42.97,26.373-62.484C211.032,272.608,210.275,268.108,208.906,265.03z"/>
				</g>
				<path style="fill:#FACCCE;" d="M271.237,217.266c-4.152-20.069-4.614-28.143-20.761-28.143
					c-16.148,0-16.609,8.074-20.761,28.143c-4.152,20.069,9.919,28.835,20.761,28.835
					C261.318,246.101,275.389,237.335,271.237,217.266z"/>
				<path style="fill:#FB9FAB;" d="M244.102,223.895c0,1.585-2.098,2.87-4.686,2.87c-2.588,0-4.686-1.285-4.686-2.87
					c0-1.585,2.098-2.871,4.686-2.871C242.004,221.024,244.102,222.309,244.102,223.895z"/>
				<ellipse style="fill:#FB9FAB;" cx="262.277" cy="223.801" rx="4.686" ry="2.871"/>
				<path style="fill:none;stroke:#44233E;stroke-width:0.5;stroke-miterlimit:10;" d="M253.878,231.797
					c-0.597,1.652-4.315,2.278-5.571,1.125"/>
				<path style="fill:#44233E;" d="M262.188,191.771c-10.259-7.51-19.58-5.53-27.561-0.405c-8.274,5.314-13.75,14.621-13.279,24.57
					c0.256,5.409,2.173,10.669,5.617,14.862c0.393,0.478,1.071-0.057,0.964-0.564c-0.861-4.068-0.75-8.307,0.345-12.32
					c1.018-3.73,2.814-7.425,6.654-8.845c1.674-0.619,3.448-0.897,5.176-1.318c1.699-0.414,3.367-0.954,4.987-1.611
					c3.19-1.294,6.188-3.01,8.912-5.115c3.094-2.39,5.786-5.241,7.998-8.465C262.19,192.284,262.416,191.939,262.188,191.771z"/>
				<path style="fill:#FACCCE;" d="M233.042,217.988c-1.064-2.871-3.558-7.974-7.48-6.215c-4.483,2.01-1.068,8.921,0.528,11.728
					c0.981,1.725,5.281,6.511,5.988,2.437C232.553,223.198,232.807,220.359,233.042,217.988z"/>
				<path style="fill:none;stroke:#44233E;stroke-width:0.5;stroke-miterlimit:10;" d="M227.743,214.239
					c-0.712-0.498-2.04-0.564-2.609,0.022c-0.807,0.832-0.236,2.747-0.002,3.729c0.42,1.759,1.19,3.159,2.338,4.541"/>
				<path style="fill:none;stroke:#44233E;stroke-width:0.5;stroke-miterlimit:10;" d="M249.977,214.18"/>
				<path style="fill:#44233E;" d="M273.947,201.486c-1.651-2.957-3.748-6.444-6.612-8.299c-2.671-1.729-6.539-2.381-9.383,1.368
					c-0.422,0.556-0.203-0.669,0,0c2.424,7.973,5.511,15.674,12.199,19.386c1.892,1.05,3.85,1.98,5.85,2.807
					c0.352,0.146,0.66-0.177,0.706-0.492C277.443,211.238,276.428,205.931,273.947,201.486z"/>
				<g>
					<path style="fill:#FACCCE;" d="M267.334,217.988c1.065-2.871,3.558-7.974,7.48-6.215c4.483,2.01,1.068,8.921-0.528,11.728
						c-0.981,1.725-5.281,6.511-5.988,2.437C267.823,223.198,267.569,220.359,267.334,217.988z"/>
					<path style="fill:none;stroke:#44233E;stroke-width:0.5;stroke-miterlimit:10;" d="M272.187,214.239
						c0.712-0.498,2.04-0.564,2.609,0.022c0.807,0.832,0.237,2.747,0.002,3.729c-0.42,1.759-1.19,3.159-2.338,4.541"/>
				</g>
				<g>
					<path d="M244.102,214.18c0,0.635-0.515,1.15-1.15,1.15s-1.15-0.515-1.15-1.15c0-0.635,0.515-1.15,1.15-1.15
						S244.102,213.545,244.102,214.18z"/>
					<circle cx="259.17" cy="214.18" r="1.15"/>
				</g>
				<path style="fill:none;stroke:#44233E;stroke-width:0.5;stroke-miterlimit:10;" d="M247.654,218.187
					c0-2.496,5.644-2.496,5.644,0"/>
				<path style="fill:#44233E;" d="M234.979,191.498c-1.034,0.411-2.981,0.372-3.875-0.302c0.257,1.219,2.403,1.243,3.364,1.221"/>
				<path style="fill:#44233E;" d="M222.901,219.394c-0.243,1.143-0.618,2.244-1.091,3.212c-2.103,4.309-5.453,8.6-9.478,11.554l0,0
					c1.42-1.018,3.613-2.341,4.887-3.556c2.9-2.766,5.912-6.517,7.055-10.607C224.084,219.729,223.07,219.676,222.901,219.394z"/>
				<path style="fill:#44233E;" d="M276.695,219.394c0.243,1.143,0.965,1.584,1.437,2.551c2.103,4.308,4.288,8.708,8.176,11.515l0,0
					c-1.42-1.018-2.065-1.261-3.339-2.476c-2.9-2.766-5.672-6.678-6.815-10.769C276.346,219.949,276.526,219.676,276.695,219.394z"
					/>
				<g>
					<circle style="fill:none;stroke:#FEF8F8;stroke-miterlimit:10;" cx="239.166" cy="214.611" r="9.19"/>
					<circle style="fill:none;stroke:#FEF8F8;stroke-miterlimit:10;" cx="261.65" cy="214.611" r="9.19"/>
					<line style="fill:none;stroke:#FEF8F8;stroke-miterlimit:10;" x1="248.356" y1="214.611" x2="252.46" y2="214.611"/>
				</g>
				<path style="fill:#44233E;" d="M273.74,205.421c0,0,1.871,5.896,5.579,7.862c0,0-4.225-0.274-6.326-7.496L273.74,205.421z"/>
				<path style="fill:none;stroke:#44233E;stroke-width:0.5;stroke-miterlimit:10;" d="M204.225,263.899
					c1.261,2.335,1.637,4.398,2.095,6.351c0.886,3.776,1.011,7.848,0.33,11.663c-3.483,19.508-14.406,38.187-23.434,55.467"/>
				<path style="fill:none;stroke:#44233E;stroke-width:0.5;stroke-miterlimit:10;" d="M148.856,352.919
					c2.238,2.736,6.766,5.738,5.385,9.772"/>
				<path style="fill:none;stroke:#44233E;stroke-width:0.5;stroke-miterlimit:10;" d="M131.665,399.745
					c9.798,7.257,20.039,11.026,32.001,13.568c22.163,4.709,44.242,10.777,67.114,9.964"/>
				<path style="fill:none;stroke:#44233E;stroke-width:0.5;stroke-miterlimit:10;" d="M278.085,258.79
					c3.338,4.596,9.155,9.521,15.156,7.778"/>
				<path style="fill:none;stroke:#44233E;stroke-width:0.5;stroke-miterlimit:10;" d="M337.514,355.313
					c-0.079-1.884,0.421-3.588,1.157-5.322c0.627-1.479,2.835-7.117,4.826-7.442"/>
				<path style="fill:none;stroke:#44233E;stroke-width:0.5;stroke-miterlimit:10;" d="M272.567,351.439
					c0.686,3.445,2.002,6.738,2.708,10.213c1.307,6.431,1.553,12.934,1.534,19.483"/>
				<path style="fill:none;stroke:#44233E;stroke-width:0.5;stroke-miterlimit:10;" d="M277.621,394.438
					c3.054-1.123,7.904,2.912,8.575,5.783"/>
				<path style="fill:none;stroke:#44233E;stroke-width:0.5;stroke-miterlimit:10;" d="M266.637,397.192
					c0.386,1.911,1.793,4.245,3.789,4.786"/>
				<path style="fill:none;stroke:#44233E;stroke-width:0.5;stroke-miterlimit:10;" d="M246.68,265.315
					c-1.713-0.812-3.754-3.336-4.34-4.291c-1.154-1.882-2.155-3.718-2.155-7.994"/>
				<path style="fill:none;stroke:#44233E;stroke-width:0.5;stroke-miterlimit:10;" d="M255.568,265.315
					c3.294-1.581,6.716-7.015,6.132-12.013"/>
				<path style="fill:none;stroke:#44233E;stroke-width:0.5;stroke-miterlimit:10;" d="M188.967,375.893
					c-0.078-5.36,3.096-10.803,5.761-15.216c1.26-2.087,4.037-5.869,6.652-7.757"/>
				<path style="fill:none;stroke:#44233E;stroke-width:0.5;stroke-miterlimit:10;" d="M215.782,239.186
					c4.112,2.064,7.545,3.611,11.635,4.761c3.348,0.941,6.336,1.34,10.827,1.34"/>
				<path style="fill:none;stroke:#44233E;stroke-width:0.5;stroke-miterlimit:10;" d="M262.635,190.367
					c2.468-0.453,4.483,0.242,6.734,1.783c4.04,2.766,7.21,9.232,8.482,13.881"/>
			</g>
		</g>
		<path style="fill:#CA5067;" d="M252.393,163.196c-1.58-0.309-3.114,0.284-4.112,1.405c-0.502-1.415-1.7-2.541-3.28-2.85
			c-2.379-0.465-4.684,1.086-5.149,3.465c-0.166,0.851-0.104,1.704,0.221,2.444c1.216,2.773,6.037,8.048,6.037,8.048
			s6.934-3.287,8.624-5.183c0.537-0.602,0.958-1.33,1.124-2.18C256.323,165.966,254.771,163.661,252.393,163.196z"/>
	</g>
	<g>
		<polyline style="fill:none;stroke:#44233E;stroke-miterlimit:10;" points="182.589,140.791 182.589,160.74 212.967,201.569 		"/>
		<path style="fill:#44233E;" d="M184.782,160.74c0,1.211-0.982,2.193-2.193,2.193c-1.211,0-2.193-0.982-2.193-2.193
			c0-1.211,0.982-2.193,2.193-2.193C183.8,158.547,184.782,159.529,184.782,160.74z"/>
		<g>
			<g>
				
					<ellipse transform="matrix(0.2255 -0.9742 0.9742 0.2255 56.7074 256.2571)" style="fill:#CA5067;" cx="189.525" cy="92.463" rx="44.071" ry="44.071"/>
				<circle style="fill:none;stroke:#44233E;stroke-miterlimit:10;" cx="189.525" cy="92.463" r="48.328"/>
				
					<text transform="matrix(1 0 0 1 175.9205 65.3411)" style="fill:#272544; font-family:'Poppins-Medium'; font-size:6.0238px; letter-spacing:1;">DRUMS</text>
			</g>
			<g>
				<g>
					<path style="fill:#B1B1FF;" d="M207.423,109.659l1.084-26.82c0.372-0.079-1.082-0.028-1.084,0.076
						C207.423,82.915,207.424,109.643,207.423,109.659z"/>
					<rect x="207.21" y="81.325" transform="matrix(0.9998 0.0201 -0.0201 0.9998 1.7043 -4.1586)" width="1.694" height="3.029"/>
					<g>
						<path style="fill:#FCA644;" d="M199.063,81.924c1.013,1.97,6.063,1.393,11.279-1.29c5.216-2.683,8.623-6.454,7.609-8.425
							c-1.013-1.97-6.063-1.393-11.279,1.29C201.457,76.182,198.05,79.954,199.063,81.924z"/>
						<path style="fill:#FCEDB9;" d="M203.376,79.706c0.55,1.07,3.294,0.757,6.128-0.701c2.834-1.458,4.685-3.507,4.134-4.577
							c-0.551-1.07-3.294-0.757-6.128,0.701C204.677,76.586,202.826,78.635,203.376,79.706z"/>
					</g>
				</g>
				<g>
					<polygon style="fill:#FCA644;" points="176.493,86.168 178.717,99.46 188.196,99.46 189.626,86.465 					"/>
					<polygon style="fill:#FCA644;" points="205.097,86.168 202.872,99.46 193.393,99.46 191.963,86.465 					"/>
				</g>
				<g>
					<path style="fill:#B1B1FF;" d="M170.551,109.659l-1.084-26.82c-0.372-0.079,1.082-0.028,1.084,0.076
						C170.551,82.915,170.55,109.643,170.551,109.659z"/>
					
						<rect x="169.069" y="81.325" transform="matrix(-0.9998 0.0201 -0.0201 -0.9998 341.4606 162.252)" width="1.694" height="3.029"/>
					<g>
						<path style="fill:#FCA644;" d="M178.911,81.924c-1.013,1.97-6.063,1.393-11.279-1.29c-5.216-2.683-8.623-6.454-7.609-8.425
							c1.013-1.97,6.063-1.393,11.279,1.29C176.517,76.182,179.924,79.954,178.911,81.924z"/>
						<path style="fill:#FCEDB9;" d="M174.598,79.706c-0.55,1.07-3.294,0.757-6.128-0.701c-2.834-1.458-4.685-3.507-4.134-4.577
							c0.551-1.07,3.294-0.757,6.128,0.701C173.297,76.586,175.148,78.635,174.598,79.706z"/>
					</g>
				</g>
				<g>
					<polygon points="171.443,112.346 168.574,119.106 170.008,119.106 172.527,112.657 					"/>
					<polygon style="fill:#FCA644;" points="162.649,94.226 165.883,113.555 179.668,113.555 181.747,94.657 					"/>
					<polygon style="fill:#F0EDEC;" points="159.372,94.226 163.162,101.002 179.311,101.002 181.747,94.377 					"/>
					<polygon style="fill:#272544;" points="159.372,96.185 160.693,99.043 179.311,99.043 181.747,96.249 					"/>
				</g>
				<polygon points="209.46,112.346 212.328,119.106 210.894,119.106 208.376,112.657 				"/>
				<polygon style="fill:#FCA644;" points="218.254,94.226 215.019,113.555 201.235,113.555 199.155,94.657 				"/>
				<polygon style="fill:#F0EDEC;" points="221.53,94.226 217.741,101.002 201.591,101.002 199.155,94.377 				"/>
				<polygon style="fill:#272544;" points="221.53,96.185 220.209,99.043 201.591,99.043 199.155,96.249 				"/>
				<ellipse style="fill:#272544;" cx="190.383" cy="105.92" rx="14.684" ry="15.005"/>
				<path style="fill:#8186A7;" d="M202.149,105.92c0,6.64-5.268,12.023-11.766,12.023c-6.498,0-11.766-5.383-11.766-12.023
					c0-6.64,5.268-12.023,11.766-12.023C196.881,93.897,202.149,99.28,202.149,105.92z"/>
				<polygon style="fill:#F0EDEC;" points="190.383,98.449 186.451,105.92 191.709,105.079 187.975,112.776 195.139,102.335 
					189.575,103.021 				"/>
				<path style="opacity:0.26;fill:#E4EBFA;" d="M186.874,114.199c-0.207-0.117-0.402-0.252-0.6-0.383
					c-0.146-0.167-0.294-0.333-0.45-0.491c-1.473-1.83-2.565-3.994-3.009-6.302c-0.047-0.242-0.078-0.492-0.107-0.742
					c-0.023-0.271-0.031-0.543-0.047-0.815c-0.009-0.72,0.081-1.439,0.346-2.102c0.197-0.375,0.445-0.724,0.694-1.069
					c0.003-0.004,0.007-0.009,0.009-0.013c0.127-0.14,0.248-0.283,0.394-0.413c0.442-0.397,0.88-0.838,0.955-1.459
					c0.049-0.399-0.057-0.67-0.239-0.859c-0.011-0.056-0.013-0.112-0.031-0.168c-0.334-1.051-1.592-1.036-2.329-0.439
					c-0.846,0.686-1.441,1.812-1.863,2.795c-0.919,2.14-1.034,4.613-0.275,6.818c0.592,1.719,1.672,3.241,3.076,4.378
					c0.332,0.533,0.759,0.991,1.263,0.976c0.277,0.233,0.56,0.456,0.859,0.661c0.135,0.153,0.267,0.31,0.408,0.458
					c0.198,0.208,0.427,0.209,0.604,0.107C187.016,115.177,187.38,114.486,186.874,114.199z"/>
				<path style="opacity:0.11;fill:#FCEDB9;" d="M171.693,109.8c-0.538-0.469-1.203-0.76-1.739-1.241
					c-0.546-0.49-1.024-1.066-1.393-1.7c-0.422-0.723-0.695-1.492-0.855-2.311c-0.154-0.789-0.308-1.59-0.887-2.19
					c-0.254-0.263-0.788-0.219-0.882,0.188c-0.054,0.234-0.072,0.468-0.073,0.701c-0.034,0.085-0.053,0.18-0.027,0.294
					c0.018,0.077,0.04,0.152,0.058,0.229c0.057,0.437,0.179,0.869,0.327,1.293c0.332,1.3,0.692,2.593,1.112,3.868
					c0.449,1.363,1.028,3.128,2.703,3.315c0.684,0.077,1.635-0.17,2.031-0.779C172.451,110.878,172.177,110.221,171.693,109.8z"/>
				<path style="fill:none;stroke:#44233E;stroke-width:0.5;stroke-miterlimit:10;" d="M154.563,77.521
					c0.891,1.609,2.638,2.904,4.267,3.657"/>
				<path style="fill:none;stroke:#44233E;stroke-width:0.5;stroke-miterlimit:10;" d="M155.477,72.949
					c-0.01,1.872,0.436,3.153,2.133,3.353"/>
				<path style="fill:none;stroke:#44233E;stroke-width:0.5;stroke-miterlimit:10;" d="M214.908,82.092
					c1.185-0.182,2.129-0.809,2.743-1.829"/>
				<path style="fill:none;stroke:#44233E;stroke-width:0.5;stroke-miterlimit:10;" d="M219.785,76.911
					c0.605-0.957,1.114-1.961,1.219-3.048"/>
			</g>
		</g>
	</g>
	<g>
		<polyline style="fill:none;stroke:#44233E;stroke-miterlimit:10;" points="316.632,140.791 316.632,160.74 286.254,201.569 		"/>
		<path style="fill:#44233E;" d="M314.439,160.74c0,1.211,0.982,2.193,2.193,2.193c1.211,0,2.193-0.982,2.193-2.193
			c0-1.211-0.982-2.193-2.193-2.193C315.421,158.547,314.439,159.529,314.439,160.74z"/>
		<g>
			
				<ellipse transform="matrix(0.9742 -0.2255 0.2255 0.9742 -12.8533 72.3911)" style="fill:#FCA644;" cx="310.475" cy="92.463" rx="44.071" ry="44.071"/>
			<circle style="fill:none;stroke:#44233E;stroke-miterlimit:10;" cx="310.475" cy="92.463" r="48.328"/>
			<g>
				<path style="fill:#44233E;" d="M320.792,107.384h-20.317c-0.866,0-1.567-0.702-1.567-1.567v-0.212
					c0-0.866,0.702-1.567,1.567-1.567h20.317c0.866,0,1.567,0.702,1.567,1.567v0.212
					C322.36,106.682,321.658,107.384,320.792,107.384z"/>
				<g>
					<g>
						<path style="fill:#852F4D;" d="M320.054,91.468l-3.652-0.815c5.346-8.487,8.685-16.661,7.456-18.167
							c-4.635,0.048-5.614,1.607-5.712,1.787l-3.748-0.641c0.066-0.142,1.707-3.468,9.68-3.468c1.185,0,2.211,0.321,2.889,0.903
							C330.544,74.137,322.58,87.458,320.054,91.468z"/>
					</g>
					<g>
						<path style="fill:#852F4D;" d="M301.7,91.468l3.652-0.815c-5.346-8.487-8.685-16.661-7.456-18.167
							c4.635,0.048,5.614,1.607,5.712,1.787l3.748-0.641c-0.066-0.142-1.707-3.468-9.68-3.468c-1.185,0-2.211,0.321-2.889,0.903
							C291.21,74.137,299.174,87.458,301.7,91.468z"/>
					</g>
					<path style="fill:#852F4D;" d="M318.824,84.591V65.926h-16.497v18.665c0,0-15.292,2.926-15.292,9.046
						c0,6.587,6.01,10.403,12.17,12.27h22.743c6.159-1.867,12.17-5.683,12.17-12.27C334.116,87.517,318.824,84.591,318.824,84.591z"
						/>
					<path style="fill:#44233E;" d="M318.824,65.926c0,0.742-3.693,1.344-8.249,1.344c-4.556,0-8.249-0.602-8.249-1.344
						c0-0.742,3.693-1.344,8.249-1.344C315.13,64.582,318.824,65.184,318.824,65.926z"/>
					<path style="opacity:0.25;fill:#FEF8F8;" d="M305.556,88.044c-1.111-1.167-3.229-1.065-4.691-0.945
						c-1.849,0.152-3.656,0.653-5.374,1.339c-2.674,1.068-6.593,2.7-6.341,6.197c0.154,2.129,1.659,3.725,3.38,4.819
						c0.822,0.522,1.738,0.938,2.623,1.338c0.588,0.265,1.18,0.578,1.812,0.725c2.804,0.651-0.661-2.811-0.95-3.293
						c-0.567-0.945-0.983-2.048-1.021-3.158c-0.063-1.838,1.548-2.995,3.144-3.468c1.843-0.546,3.81-0.446,5.654-0.993
						C304.96,90.26,306.889,89.443,305.556,88.044z"/>
				</g>
				
					<text transform="matrix(1 0 0 1 291.6901 118.4583)" style="fill:#272544; font-family:'Poppins-Medium'; font-size:6.6281px; letter-spacing:1;">POTTERY</text>
				<path style="fill:none;stroke:#44233E;stroke-width:0.5;stroke-miterlimit:10;" d="M282.386,89.754
					c-2.663,2.964-1.478,7.677,1.829,9.753"/>
				<path style="fill:none;stroke:#44233E;stroke-width:0.5;stroke-miterlimit:10;" d="M327.188,68.115
					c1.586,0.966,2.843,2.342,2.743,4.267"/>
				<path style="fill:none;stroke:#44233E;stroke-width:0.5;stroke-miterlimit:10;" d="M328.102,65.372
					c1.35,1.397,2.285,1.85,2.743,3.657"/>
			</g>
		</g>
	</g>
	<g>
		<path style="fill:#44233E;" d="M130.378,213.062c1.205,2.161-1.079,4.363-3.236,2.989c-0.153-0.098-0.291-0.236-0.389-0.389
			c-1.374-2.157,0.827-4.441,2.989-3.236C130.01,212.575,130.228,212.793,130.378,213.062z"/>
		<polyline style="fill:none;stroke:#44233E;stroke-miterlimit:10;" points="114.753,196.795 128.32,213.604 187.118,226.427 		"/>
		<g>
			
				<ellipse transform="matrix(0.7071 -0.7071 0.7071 0.7071 -85.7081 107.5704)" style="fill:#D3DDF6;" cx="86.995" cy="157.244" rx="44.071" ry="44.071"/>
			<circle style="fill:none;stroke:#44233E;stroke-miterlimit:10;" cx="86.995" cy="157.244" r="48.328"/>
			<g>
				
					<text transform="matrix(1 0 0 1 56.13 178.1287)" style="fill:#272544; font-family:'Poppins-Medium'; font-size:6.0238px; letter-spacing:1;">MUSIC</text>
				<g>
					<path style="fill:#272544;" d="M60.097,145.97l9.336,11.915l9.309-7.766l-9.336-11.915c-1.958-2.499-5.629-2.786-8.199-0.641
						l0,0C58.636,139.708,58.14,143.472,60.097,145.97z"/>
					<path style="fill:#272544;" d="M121.389,153.606c-3.806,2.208-4.181,7.03-4.044,10.958c0.074,2.124,0.419,4.505-0.361,6.543
						c-0.327,0.854-0.895,1.632-1.81,1.897c-1.092,0.316-2.25-0.177-3.26-0.553c-0.923-0.344-1.976-0.809-2.983-0.66
						c-0.934,0.138-1.458,0.862-1.668,1.733c-0.534,2.212,0.374,4.487,1.236,6.486c0.853,1.977,1.875,4.167,1.294,6.361
						c-0.226,0.854-0.699,1.694-1.435,2.205c-0.937,0.651-2.102,0.594-3.13,0.197c-1.256-0.486-2.318-1.356-3.328-2.226
						c-0.997-0.859-1.943-1.775-2.852-2.726c-1.707-1.786-3.275-3.701-4.832-5.619l1.82-1.494l-21.093-27.941l-5.574,4.575
						l21.095,27.939l2.973-2.441c1.405,1.731,2.819,3.455,4.336,5.09c1.588,1.712,3.282,3.447,5.219,4.767
						c1.715,1.169,3.98,2.014,5.885,0.75c1.498-0.995,2.155-2.928,2.094-4.66c-0.083-2.383-1.344-4.491-2.156-6.67
						c-0.426-1.143-0.771-2.376-0.679-3.609c0.038-0.502,0.098-1.25,0.547-1.573c0.498-0.358,1.303-0.08,1.822,0.085
						c1.898,0.604,4.013,1.787,5.909,0.505c1.505-1.018,1.949-3.059,2.018-4.758c0.188-4.666-1.406-11.465,3.543-14.335
						C122.54,154.104,121.948,153.282,121.389,153.606z"/>
					<polygon style="fill:#5A5A85;" points="63.724,156.567 71.561,166.722 86.834,154.102 78.996,143.948 					"/>
				</g>
				<g>
					<path style="fill:#5A5A85;" d="M108.557,159.89c-0.15-4.571,0.175-9.137,0.978-13.639c0.057-0.319-0.171-0.654-0.52-0.636
						c-1.947,0.104-3.893,0.209-5.84,0.313c-0.651,0.035-1.715-0.126-2.246,0.332c-0.263,0.227-0.323,0.589-0.396,0.908
						c-0.103,0.451-0.196,0.904-0.288,1.357c-0.754,3.712-1.23,7.476-1.449,11.257c-0.039,0.667,0.998,0.633,1.036-0.029
						c0.197-3.399,0.612-6.782,1.252-10.127c0.079-0.413,0.161-0.825,0.247-1.237c0.064-0.308,0.073-1,0.267-1.233
						c0.201-0.24,0.785-0.149,1.098-0.166c0.381-0.02,0.762-0.041,1.143-0.061c1.528-0.082,3.056-0.164,4.584-0.246
						c-0.734,4.371-1.049,8.803-0.903,13.234C107.542,160.587,108.579,160.559,108.557,159.89z"/>
					<path style="fill:#5A5A85;" d="M100.179,159.829c-0.076-0.542-0.333-1.042-0.783-1.366c-0.437-0.315-0.963-0.408-1.489-0.316
						c-0.293,0.051-0.552,0.185-0.773,0.366c-0.145,0.036-0.285,0.094-0.414,0.183c-0.482,0.332-0.749,0.938-0.671,1.52
						c0.148,1.109,1.22,1.978,2.35,1.82C99.448,161.889,100.332,160.926,100.179,159.829z"/>
					<path style="fill:#5A5A85;" d="M108.466,159.954c-0.076-0.542-0.333-1.042-0.783-1.366c-0.437-0.315-0.963-0.408-1.489-0.316
						c-0.293,0.051-0.552,0.185-0.773,0.366c-0.145,0.036-0.285,0.094-0.414,0.183c-0.482,0.332-0.749,0.938-0.671,1.519
						c0.148,1.109,1.22,1.978,2.35,1.82C107.736,162.013,108.62,161.05,108.466,159.954z"/>
				</g>
				<g>
					<path style="fill:#5A5A85;" d="M90.472,133.191c-0.268-0.477-0.69-0.848-1.228-0.986c-0.522-0.133-1.046-0.028-1.502,0.249
						c-0.254,0.155-0.447,0.374-0.587,0.623c-0.122,0.086-0.231,0.192-0.318,0.321c-0.327,0.485-0.355,1.147-0.071,1.66
						c0.542,0.979,1.858,1.397,2.852,0.838C90.543,135.375,91.015,134.156,90.472,133.191z"/>
					<path style="fill:#5A5A85;" d="M88.834,124.831c-0.142-0.648-1.17-0.505-1.026,0.15c0.669,3.045,0.815,6.2,1.898,9.147
						c0.231,0.628,1.184,0.22,0.955-0.405C89.61,130.864,89.483,127.786,88.834,124.831z"/>
				</g>
				<path style="opacity:0.13;fill:#E4EBFA;" d="M67.352,148.268c-0.205-0.356-0.468-0.693-0.713-0.986
					c-1.16-1.389-2.095-3.169-2.3-5.044c-0.087-0.798,0.588-3.934-0.933-3.763c-0.501,0.057-0.882,0.471-1.157,0.893
					c-1.058,1.623-1.243,3.719-0.362,5.451c0.014,0.027,0.033,0.052,0.047,0.079c0.628,1.203,3.206,7.522,5.289,5.597
					C67.956,149.818,67.777,149.003,67.352,148.268z"/>
				<path style="opacity:0.06;fill:#E4EBFA;" d="M91.112,175.443c-1.594-2.082-3.302-4.086-4.951-6.125
					c-1.783-2.206-3.771-4.359-5.213-6.812c-0.185-0.315-0.523-0.353-0.808-0.155l-1.13,0.787c0.408,1.47,6.038,8.15,9.067,11.55
					c0.362,0.407,0.726,0.812,1.089,1.218c0.296,0.33,0.603,0.729,1.066,0.816C90.998,176.864,91.602,176.083,91.112,175.443z"/>
				<path style="fill:none;stroke:#44233E;stroke-width:0.5;stroke-miterlimit:10;" d="M62.168,131.521
					c1.68,0.36,3.366,1.533,4.572,2.743"/>
				<path style="fill:none;stroke:#44233E;stroke-width:0.5;stroke-miterlimit:10;" d="M55.158,140.664
					c-1.185,2.545,1.039,6.185,3.352,7.315"/>
				<path style="fill:none;stroke:#44233E;stroke-width:0.5;stroke-miterlimit:10;" d="M51.806,143.407
					c-0.151,2.387,0.531,4.861,2.743,6.096"/>
			</g>
		</g>
	</g>
	<g>
		<path style="fill:#44233E;" d="M368.843,213.062c-1.205,2.161,1.079,4.363,3.236,2.989c0.153-0.098,0.291-0.236,0.389-0.389
			c1.374-2.157-0.827-4.441-2.988-3.236C369.211,212.575,368.993,212.793,368.843,213.062z"/>
		<polyline style="fill:none;stroke:#44233E;stroke-miterlimit:10;" points="384.468,196.795 370.901,213.604 312.103,226.427 		"/>
		<g>
			
				<ellipse transform="matrix(0.7071 -0.7071 0.7071 0.7071 9.7781 338.0944)" style="fill:#CA5067;" cx="413.005" cy="157.244" rx="44.071" ry="44.071"/>
			<circle style="fill:none;stroke:#44233E;stroke-miterlimit:10;" cx="413.005" cy="157.244" r="48.328"/>
			
				<text transform="matrix(1 0 0 1 397.0143 186.0745)" style="fill:#272544; font-family:'Poppins-Medium'; font-size:6.6281px; letter-spacing:1;">PLANTS</text>
			<g>
				<g>
					<ellipse style="fill:#F9C99E;" cx="413.682" cy="145.135" rx="12.204" ry="17.03"/>
					<g>
						<defs>
							<ellipse id="SVGID_1_" cx="413.682" cy="145.135" rx="12.204" ry="17.03"/>
						</defs>
						<clipPath id="SVGID_00000153700588784485418390000016325837362109197723_">
							<use xlink:href="#SVGID_1_"  style="overflow:visible;"/>
						</clipPath>
						
							<path style="clip-path:url(#SVGID_00000153700588784485418390000016325837362109197723_);fill:none;stroke:#F9A152;stroke-miterlimit:10;" d="
							M420.662,143.941c0,10.065-3.125,18.225-6.981,18.225c-3.855,0-6.981-8.16-6.981-18.225s3.125-18.225,6.981-18.225
							C417.537,125.716,420.662,133.875,420.662,143.941z"/>
						
							<ellipse style="clip-path:url(#SVGID_00000153700588784485418390000016325837362109197723_);fill:none;stroke:#F9A152;stroke-miterlimit:10;" cx="413.682" cy="143.941" rx="2.248" ry="18.225"/>
					</g>
					<path style="fill:#FCA644;" d="M403.775,147.234c-0.016-0.072-0.048-0.136-0.097-0.191c-0.028-0.024-0.057-0.049-0.085-0.073
						c-0.064-0.041-0.133-0.064-0.209-0.067h-0.054c-0.055-0.005-0.108,0.004-0.158,0.027c-0.053,0.014-0.1,0.04-0.141,0.079
						c-0.045,0.037-0.078,0.083-0.098,0.136c-0.028,0.048-0.043,0.101-0.043,0.158l0.009,0.107c0.015,0.072,0.048,0.136,0.096,0.191
						c0.029,0.024,0.057,0.049,0.085,0.073c0.064,0.041,0.133,0.064,0.209,0.067h0.054c0.055,0.005,0.108-0.004,0.158-0.026
						c0.053-0.014,0.1-0.04,0.141-0.079c0.045-0.037,0.078-0.083,0.098-0.136c0.028-0.048,0.043-0.101,0.043-0.158L403.775,147.234z
						"/>
					<path style="fill:#FCA644;" d="M404.941,144.27c-0.538,0-0.582,0.839-0.039,0.839
						C405.44,145.109,405.484,144.27,404.941,144.27z"/>
					<path style="fill:#FCA644;" d="M403.491,140.941c-0.538,0-0.582,0.839-0.04,0.839
						C403.99,141.779,404.034,140.941,403.491,140.941z"/>
					<path style="fill:#FCA644;" d="M405.049,135.946c-0.539,0-0.582,0.839-0.04,0.839
						C405.548,136.785,405.591,135.946,405.049,135.946z"/>
					<path style="fill:#FCA644;" d="M410.365,133.852c-0.538,0-0.582,0.839-0.039,0.839
						C410.864,134.69,410.908,133.852,410.365,133.852z"/>
					<path style="fill:#FCA644;" d="M409.13,139.115c-0.538,0-0.582,0.839-0.039,0.839
						C409.629,139.953,409.673,139.115,409.13,139.115z"/>
					<path style="fill:#FCA644;" d="M414.071,147.385c-0.538,0-0.582,0.839-0.039,0.839
						C414.57,148.224,414.613,147.385,414.071,147.385z"/>
					<path style="fill:#FCA644;" d="M409.399,144.861c-0.539,0-0.582,0.839-0.04,0.839
						C409.898,145.7,409.941,144.861,409.399,144.861z"/>
					<path style="fill:#FCA644;" d="M413.964,141.692c-0.538,0-0.582,0.839-0.039,0.839
						C414.463,142.531,414.506,141.692,413.964,141.692z"/>
					<path style="fill:#FCA644;" d="M413.588,136.483c-0.538,0-0.582,0.839-0.039,0.839
						C414.087,137.322,414.13,136.483,413.588,136.483z"/>
					<path style="fill:#FCA644;" d="M414.071,132.458c-0.538,0-0.582,0.839-0.039,0.839
						C414.57,133.297,414.613,132.458,414.071,132.458z"/>
					<path style="fill:#FCA644;" d="M417.884,134.013c-0.538,0-0.582,0.839-0.04,0.839
						C418.383,134.852,418.427,134.013,417.884,134.013z"/>
					<path style="fill:#FCA644;" d="M418.475,139.705c-0.538,0-0.582,0.839-0.039,0.839
						C418.974,140.544,419.017,139.705,418.475,139.705z"/>
					<path style="fill:#FCA644;" d="M418.367,145.881c-0.538,0-0.582,0.839-0.039,0.839
						C418.866,146.72,418.91,145.881,418.367,145.881z"/>
					<path style="fill:#FCA644;" d="M422.717,148.191c-0.538,0-0.582,0.839-0.039,0.839
						C423.216,149.029,423.26,148.191,422.717,148.191z"/>
					<path style="fill:#FCA644;" d="M424.543,144.485c-0.538,0-0.582,0.839-0.039,0.839
						C425.042,145.324,425.086,144.485,424.543,144.485z"/>
					<path style="fill:#FCA644;" d="M422.556,140.779c-0.538,0-0.582,0.839-0.039,0.839
						C423.055,141.618,423.099,140.779,422.556,140.779z"/>
					<path style="fill:#FCA644;" d="M422.18,135.463c-0.538,0-0.582,0.839-0.039,0.839
						C422.679,136.301,422.723,135.463,422.18,135.463z"/>
				</g>
				<path style="fill:#FCA644;" d="M400.036,149.742c-1.812,2.618-2.874,5.78-2.874,9.184c0,9.037,7.463,16.363,16.668,16.363
					c9.205,0,16.668-7.327,16.668-16.363c0-3.405-1.061-6.566-2.874-9.184H400.036z"/>
				<path style="opacity:0.15;fill:#FCEDB9;" d="M411.467,166.309c-1.018-1.168-2.469-1.813-3.665-2.763
					c-1.261-1.002-2.249-2.337-2.899-3.805c-0.371-0.837-0.624-1.723-0.758-2.629c-0.139-0.943,0.039-1.919-0.133-2.848
					c-0.136-0.74-0.716-1.467-1.531-1.438c-2.22,0.079-2.213,4.748-2.142,6.208c0.207,4.246,2.606,9.604,6.982,10.989
					c1.241,0.393,3.145,0.775,4.315-0.011C412.993,169.1,412.338,167.308,411.467,166.309z"/>
			</g>
			<path style="fill:none;stroke:#44233E;stroke-width:0.5;stroke-miterlimit:10;" d="M398.392,127.439
				c1.007,0.33,1.78,1.088,2.747,1.439"/>
			<path style="fill:none;stroke:#44233E;stroke-width:0.5;stroke-miterlimit:10;" d="M400.616,124.822
				c0.491,0.395,1.163,1.246,1.701,1.832"/>
			<path style="fill:none;stroke:#44233E;stroke-width:0.5;stroke-miterlimit:10;" d="M425.344,131.102
				c0.495-0.355,0.943-0.901,1.57-0.916"/>
			<path style="fill:none;stroke:#44233E;stroke-width:0.5;stroke-miterlimit:10;" d="M426.522,132.803
				c0.7-0.028,1.399-0.247,1.963-0.654"/>
			<path style="fill:none;stroke:#44233E;stroke-width:0.5;stroke-miterlimit:10;" d="M395.121,156.484
				c0.014,1.907,0.027,3.801,0.382,5.688c0.937,4.986,4.305,8.914,7.861,12.367"/>
			<path style="fill:none;stroke:#44233E;stroke-width:0.5;stroke-miterlimit:10;" d="M432.429,156.484
				c-0.014,1.907-0.027,3.801-0.382,5.688c-0.937,4.986-4.305,8.914-7.861,12.367"/>
		</g>
	</g>
	<g>
		<path style="fill:#44233E;" d="M140.711,252.689c0,1.211-0.982,2.193-2.193,2.193c-1.211,0-2.193-0.982-2.193-2.193
			c0-1.211,0.982-2.193,2.193-2.193C139.729,250.496,140.711,251.478,140.711,252.689z"/>
		<polyline style="fill:none;stroke:#44233E;stroke-miterlimit:10;" points="120.334,269.88 138.508,252.736 195.026,254.362 		"/>
		<g>
			
				<ellipse transform="matrix(0.2202 -0.9754 0.9754 0.2202 -208.6664 281.931)" style="fill:#FCA644;" cx="72.005" cy="271.479" rx="44.071" ry="44.071"/>
			<circle style="fill:none;stroke:#44233E;stroke-miterlimit:10;" cx="72.005" cy="271.479" r="48.328"/>
			
				<text transform="matrix(1 0 0 1 58.6476 301.9212)" style="fill:#272544; font-family:'Poppins-Medium'; font-size:6.0238px; letter-spacing:1;">BOOKS</text>
			<g>
				<path style="fill:#272544;" d="M85.066,249.56c-5.152-1.267-9.668,0.502-12.843,4.02c-3.176-3.518-7.691-5.287-12.843-4.02
					c-10.024,2.465-14.435,5.185-14.435,5.185c-0.188,9.878,2.25,23.417,3.539,35.354c0,0,17.092,1.705,23.739-1.111
					c6.647,2.816,23.739,1.111,23.739,1.111s4.31-34.049,3.539-35.354C99.501,254.744,95.09,252.025,85.066,249.56z"/>
				<path style="fill:#FEF8F8;" d="M83.458,246.169c-4.507-1.244-8.457,0.493-11.235,3.945c-2.778-3.452-6.728-5.189-11.235-3.945
					c-8.769,2.419-12.628,5.088-12.628,5.088l3.096,34.695c0,0,14.951,1.673,20.767-1.09c5.815,2.764,20.767,1.09,20.767,1.09
					l3.096-34.695C96.086,251.257,92.227,248.588,83.458,246.169z"/>
				<g>
					<path style="fill:#44233E;" d="M66.035,258.245c-1.279,0.271-2.606,0.288-3.886,0.007c-0.535-0.117-1.071-0.346-1.628-0.289
						c-0.487,0.05-0.944,0.296-1.254,0.675c-0.17,0.208-0.306,0.495-0.56,0.195c-0.177-0.209-0.233-0.508-0.408-0.725
						c-0.275-0.341-0.704-0.478-1.132-0.415c-1.055,0.155-1.434,1.2-1.659,2.103c-0.097,0.391,0.502,0.585,0.6,0.19
						c0.118-0.471,0.233-1.017,0.584-1.377c0.362-0.37,0.941-0.434,1.216,0.053c0.21,0.372,0.361,0.788,0.81,0.932
						c0.419,0.134,0.71-0.116,0.943-0.431c0.373-0.507,0.875-0.658,1.483-0.522c0.539,0.121,1.062,0.275,1.612,0.352
						c1.135,0.159,2.291,0.103,3.41-0.134C66.563,258.777,66.432,258.161,66.035,258.245z"/>
					<path style="fill:#44233E;" d="M65.941,261.055c-3.333,0.051-6.663,0.259-9.981,0.63c-0.379,0.042-0.298,0.665,0.08,0.623
						c3.267-0.365,6.548-0.577,9.83-0.628C66.244,261.674,66.32,261.049,65.941,261.055z"/>
					<path style="fill:#44233E;" d="M65.941,264.259c-3.333,0.051-6.663,0.259-9.981,0.63c-0.379,0.042-0.298,0.665,0.08,0.623
						c3.267-0.366,6.548-0.577,9.83-0.628C66.244,264.879,66.32,264.253,65.941,264.259z"/>
					<path style="fill:#44233E;" d="M66.483,267.081c-3.333,0.051-6.663,0.259-9.981,0.63c-0.378,0.042-0.298,0.665,0.08,0.623
						c3.267-0.366,6.548-0.577,9.83-0.628C66.786,267.701,66.862,267.075,66.483,267.081z"/>
					<path style="fill:#44233E;" d="M66.483,270.3c-3.333,0.051-6.663,0.259-9.981,0.63c-0.378,0.042-0.298,0.665,0.08,0.623
						c3.267-0.366,6.548-0.577,9.83-0.628C66.786,270.92,66.862,270.294,66.483,270.3z"/>
					<path style="fill:#44233E;" d="M66.908,273.537c-3.333,0.051-6.663,0.259-9.981,0.63c-0.378,0.042-0.298,0.665,0.08,0.623
						c3.267-0.366,6.548-0.577,9.83-0.628C67.211,274.157,67.287,273.531,66.908,273.537z"/>
				</g>
				<g>
					<path style="fill:#44233E;" d="M79.313,261.055c3.333,0.051,6.663,0.259,9.981,0.63c0.378,0.042,0.298,0.665-0.08,0.623
						c-3.267-0.365-6.548-0.577-9.83-0.628C79.01,261.674,78.934,261.049,79.313,261.055z"/>
					<path style="fill:#44233E;" d="M79.313,258.314c3.333,0.051,6.663,0.259,9.981,0.631c0.378,0.042,0.298,0.665-0.08,0.623
						c-3.267-0.366-6.548-0.577-9.83-0.628C79.01,258.934,78.934,258.308,79.313,258.314z"/>
					<path style="fill:#44233E;" d="M79.313,264.259c3.333,0.051,6.663,0.259,9.981,0.63c0.378,0.042,0.298,0.665-0.08,0.623
						c-3.267-0.366-6.548-0.577-9.83-0.628C79.01,264.879,78.934,264.253,79.313,264.259z"/>
					<path style="fill:#44233E;" d="M78.771,267.081c3.333,0.051,6.663,0.259,9.981,0.63c0.378,0.042,0.298,0.665-0.08,0.623
						c-3.267-0.366-6.548-0.577-9.83-0.628C78.468,267.701,78.392,267.075,78.771,267.081z"/>
					<path style="fill:#44233E;" d="M78.771,270.3c3.333,0.051,6.663,0.259,9.981,0.63c0.378,0.042,0.298,0.665-0.08,0.623
						c-3.267-0.366-6.548-0.577-9.83-0.628C78.468,270.92,78.392,270.294,78.771,270.3z"/>
					<path style="fill:#44233E;" d="M78.346,273.537c3.333,0.051,6.663,0.259,9.981,0.63c0.378,0.042,0.298,0.665-0.08,0.623
						c-3.267-0.366-6.548-0.577-9.83-0.628C78.043,274.157,77.967,273.531,78.346,273.537z"/>
				</g>
				<path style="fill:#943456;" d="M72.961,249.392h-1.487c0.873,5.648,1.502,11.61,1.159,17.317
					c-0.212,3.529-0.587,7.046-1.039,10.551c-0.445,3.442-1.063,6.869-1.397,10.323c-0.181,1.88-0.244,3.772-0.063,5.655
					c0.041,0.426,0.098,0.85,0.168,1.272l0.922-2.219l1.718,2.219c-0.107-0.599-0.678-2.68-0.724-3.286
					c-0.126-1.649-0.176-1.833-0.022-3.477c0.321-3.414,0.934-6.801,1.377-10.2c0.889-6.827,1.078-13.469,0.762-20.358
					C74.222,254.734,73.777,251.476,72.961,249.392z"/>
				<path style="opacity:0.6;fill:#E4EBFA;" d="M54.113,275.301c-0.096-2.11-0.155-4.223-0.307-6.328
					c-0.023-0.319-0.068-0.634-0.096-0.952c-0.005-0.103-0.01-0.205-0.014-0.308c-0.116-2.466-0.247-4.931-0.469-7.39
					c-0.211-2.333-0.398-4.748-1.426-6.89c-0.162-0.337-0.707-0.396-0.898-0.049c-0.553,1.003-0.59,2.08-0.513,3.2
					c0.084,1.213,0.197,2.426,0.308,3.637c0.232,2.528,0.502,5.052,0.81,7.572c0.626,5.124,1.41,10.228,2.343,15.304
					c0.048,0.259,0.234,0.378,0.434,0.392c0.331,0.13,0.812-0.107,0.731-0.572C54.574,280.393,54.303,277.85,54.113,275.301z"/>
				<path style="opacity:0.6;fill:#E4EBFA;" d="M90.333,275.301c0.096-2.11,0.155-4.223,0.307-6.328
					c0.023-0.319,0.068-0.634,0.096-0.952c0.005-0.103,0.009-0.205,0.014-0.308c0.116-2.466,0.247-4.931,0.469-7.39
					c0.211-2.333,0.398-4.748,1.426-6.89c0.162-0.337,0.707-0.396,0.898-0.049c0.553,1.003,0.59,2.08,0.513,3.2
					c-0.084,1.213-0.197,2.426-0.308,3.637c-0.232,2.528-0.502,5.052-0.81,7.572c-0.626,5.124-1.41,10.228-2.343,15.304
					c-0.048,0.259-0.234,0.378-0.434,0.392c-0.331,0.13-0.812-0.107-0.731-0.572C89.872,280.393,90.142,277.85,90.333,275.301z"/>
				<path style="fill:none;stroke:#44233E;stroke-width:0.5;stroke-miterlimit:10;" d="M46.406,283.405
					c-0.693-7.18-2.855-14.393-2.743-21.639"/>
				<path style="fill:none;stroke:#44233E;stroke-width:0.5;stroke-miterlimit:10;" d="M99.593,285.538
					c0.152-6.033,0-12.953,0.758-18.896"/>
			</g>
		</g>
	</g>
	<g>
		<path style="fill:#44233E;" d="M358.51,252.689c0,1.211,0.982,2.193,2.193,2.193c1.211,0,2.193-0.982,2.193-2.193
			c0-1.211-0.982-2.193-2.193-2.193C359.491,250.496,358.51,251.478,358.51,252.689z"/>
		<polyline style="fill:none;stroke:#44233E;stroke-miterlimit:10;" points="378.887,269.88 360.713,252.736 304.195,254.362 		"/>
		<g>
			
				<ellipse transform="matrix(0.9742 -0.2255 0.2255 0.9742 -50.1935 103.5015)" style="fill:#D3DDF6;" cx="427.995" cy="271.479" rx="44.071" ry="44.071"/>
			<circle style="fill:none;stroke:#44233E;stroke-miterlimit:10;" cx="427.995" cy="271.479" r="48.328"/>
			
				<text transform="matrix(1 0 0 1 407.4508 302.8021)" style="fill:#272544; font-family:'Poppins-Medium'; font-size:6.6281px; letter-spacing:1;">PAINTING</text>
			<g>
				<path style="fill:#FCA644;" d="M456.34,276.557c5.216-12.974,1.048-29.531-5.682-28.198s-7.803,9.523-9.805,7.338
					c-2.002-2.185-2.179-8.512-7.483-6.741c-12.542,4.189-23.019,35.369-6.982,42.085
					C433.167,293.88,448.887,295.097,456.34,276.557z M439.295,268.448c-4.696-2.005-0.619-8.211,2.269-8.662
					C446.359,259.035,443.99,270.453,439.295,268.448z"/>
				<path style="fill:#FEF8F8;" d="M429.016,264.424c-0.686-0.14-1.262-0.625-1.597-1.229c-0.679-1.224-0.385-2.803,0.413-3.894
					c0.738-1.01,1.893-1.703,3.139-1.813c0.567-0.002,1.168,0.053,1.592,0.456c0.552,0.523,0.57,1.401,0.508,2.106
					c-0.068,0.777-0.21,1.562-0.568,2.263c-0.334,0.653-0.836,1.233-1.452,1.635C430.459,264.334,429.725,264.569,429.016,264.424z"
					/>
				<path style="fill:#555699;" d="M425.857,275.479c-0.64-0.13-1.179-0.584-1.491-1.148c-0.634-1.143-0.359-2.617,0.386-3.636
					c0.689-0.943,1.768-1.59,2.931-1.693c0.529-0.002,1.09,0.049,1.487,0.425c0.515,0.489,0.532,1.309,0.474,1.966
					c-0.064,0.726-0.196,1.459-0.53,2.113c-0.312,0.61-0.78,1.152-1.355,1.527C427.204,275.395,426.519,275.614,425.857,275.479z"/>
				<path style="fill:#FCEDB9;" d="M427.728,286.512c-0.532-0.109-0.98-0.486-1.24-0.954c-0.527-0.95-0.299-2.176,0.321-3.023
					c0.573-0.784,1.47-1.322,2.437-1.408c0.44-0.002,0.907,0.041,1.236,0.354c0.428,0.406,0.443,1.088,0.395,1.635
					c-0.053,0.604-0.163,1.213-0.441,1.757c-0.259,0.507-0.649,0.958-1.127,1.27C428.848,286.442,428.279,286.625,427.728,286.512z"
					/>
				<path style="fill:#CA5067;" d="M439.14,286.617c-0.553-0.113-1.018-0.505-1.288-0.992c-0.548-0.987-0.31-2.261,0.333-3.141
					c0.595-0.814,1.527-1.374,2.532-1.462c0.457-0.002,0.942,0.043,1.285,0.367c0.445,0.422,0.46,1.13,0.41,1.699
					c-0.055,0.627-0.169,1.26-0.458,1.825c-0.269,0.527-0.674,0.995-1.171,1.319C440.304,286.544,439.712,286.733,439.14,286.617z"
					/>
				<path style="fill:#5A5A85;" d="M447.835,278.966c-0.686-0.14-1.262-0.625-1.597-1.229c-0.679-1.224-0.385-2.803,0.413-3.894
					c0.738-1.01,1.893-1.703,3.139-1.813c0.567-0.002,1.168,0.053,1.592,0.456c0.552,0.523,0.57,1.401,0.508,2.106
					c-0.068,0.778-0.21,1.562-0.568,2.263c-0.334,0.653-0.836,1.233-1.451,1.635C449.277,278.876,448.544,279.11,447.835,278.966z"
					/>
				<path style="fill:#8186A7;" d="M451.987,266.68c-0.612-0.125-1.127-0.559-1.427-1.098c-0.606-1.093-0.344-2.503,0.369-3.478
					c0.659-0.902,1.691-1.521,2.803-1.619c0.506-0.002,1.043,0.047,1.423,0.407c0.493,0.467,0.509,1.252,0.454,1.881
					c-0.061,0.694-0.187,1.395-0.507,2.021c-0.298,0.583-0.746,1.102-1.297,1.46C453.275,266.599,452.62,266.809,451.987,266.68z"/>
			</g>
			<g>
				<path style="fill:#93665A;" d="M414.448,254.013c0,0-13.139,18.005-13.509,33.951c-0.007,0.296,0.107,0.581,0.309,0.797l0,0
					c0.589,0.625,1.634,0.379,1.879-0.444c1.223-4.101,4.348-14.164,7.765-21.884c3.018-6.819,4.49-12.108,4.49-12.108
					L414.448,254.013z"/>
				<g>
					<path style="fill:#555699;" d="M413.796,257.605c-2.158-0.426-4.041-4.428,0.374-11.612c4.415-7.183,1.668-11.045,3.381-10.744
						c1.713,0.301,3.701,7.338,3.233,11.671C420.317,251.252,419.257,258.683,413.796,257.605z"/>
					<path style="opacity:0.2;fill:#272544;" d="M419.321,242.304c-0.028-0.058-0.06-0.11-0.098-0.155
						c-1.23-1.462-1.418,2.196-1.455,2.543c-0.109,1.021-0.534,2.021-0.592,3.04c-0.051,0.898-0.184,1.633-0.489,2.505
						c-0.344,0.983-0.889,1.874-1.342,2.808c-0.353,0.728-0.97,1.637-0.524,2.443c0.268,0.484,0.854,0.715,1.342,0.395
						c1.103-0.723,1.556-2.397,1.849-3.591c0.405-1.651,0.709-3.333,0.971-5.013c0.138-0.889,0.314-1.774,0.393-2.67
						C419.423,244.073,419.601,242.885,419.321,242.304z"/>
				</g>
			</g>
			<path style="fill:none;stroke:#44233E;stroke-width:0.5;stroke-miterlimit:10;" d="M410.878,256.301
				c-3.334-5.286,3.225-10.388,3.271-15.569"/>
			<path style="fill:none;stroke:#44233E;stroke-width:0.5;stroke-miterlimit:10;" d="M448.296,285.87
				c3.8-4.828,6.409-10.115,6.803-16.354"/>
			<path style="fill:none;stroke:#44233E;stroke-width:0.5;stroke-miterlimit:10;" d="M422.26,239.031
				c0.462-0.065,0.934-0.307,1.308-0.654"/>
			<path style="fill:none;stroke:#44233E;stroke-width:0.5;stroke-miterlimit:10;" d="M422.784,240.994
				c0.475-0.06,0.931-0.24,1.308-0.523"/>
			<path style="fill:none;stroke:#44233E;stroke-width:0.5;stroke-miterlimit:10;" d="M416.373,276.188
				c-0.443,1.51,0.201,4.083,0.609,5.524c0.828,2.92,2.565,5.362,4.755,7.428"/>
		</g>
	</g>
</g>
</svg>
